{
    "asset" : {
        "generator" : "Khronos glTF Blender I/O v3.2.43",
        "version" : "2.0"
    },
    "scene" : 0,
    "scenes" : [
        {
            "name" : "Scene",
            "nodes" : [
                0
            ]
        }
    ],
    "nodes" : [
        {
            "mesh" : 0,
            "name" : "ayamStuff",
            "rotation" : [
                0.7071068286895752,
                0,
                0,
                0.7071067094802856
            ],
            "scale" : [
                0.10000000149011612,
                0.10000000149011612,
                0.10000000149011612
            ],
            "translation" : [
                0,
                -2.7022323608398438,
                0
            ]
        }
    ],
    "materials" : [
        {
            "alphaMode" : "BLEND",
            "doubleSided" : true,
            "name" : "phong2SG",
            "normalTexture" : {
                "index" : 0,
                "scale" : 0
            },
            "pbrMetallicRoughness" : {
                "baseColorTexture" : {
                    "index" : 1
                },
                "metallicFactor" : 0,
                "roughnessFactor" : 0.8658359050750732
            }
        }
    ],
    "meshes" : [
        {
            "name" : "ayamStuff",
            "primitives" : [
                {
                    "attributes" : {
                        "POSITION" : 0,
                        "NORMAL" : 1,
                        "TEXCOORD_0" : 2
                    },
                    "indices" : 3,
                    "material" : 0
                }
            ]
        }
    ],
    "textures" : [
        {
            "sampler" : 0,
            "source" : 0
        },
        {
            "sampler" : 0,
            "source" : 1
        }
    ],
    "images" : [
        {
            "bufferView" : 4,
            "mimeType" : "image/jpeg",
            "name" : "ayam_height"
        },
        {
            "bufferView" : 5,
            "mimeType" : "image/jpeg",
            "name" : "ayam_texture"
        }
    ],
    "accessors" : [
        {
            "bufferView" : 0,
            "componentType" : 5126,
            "count" : 459,
            "max" : [
                50,
                0.756371021270752,
                3.999999989900971e-06
            ],
            "min" : [
                -50,
                -0.756371021270752,
                -70.71240234375
            ],
            "type" : "VEC3"
        },
        {
            "bufferView" : 1,
            "componentType" : 5126,
            "count" : 459,
            "type" : "VEC3"
        },
        {
            "bufferView" : 2,
            "componentType" : 5126,
            "count" : 459,
            "type" : "VEC2"
        },
        {
            "bufferView" : 3,
            "componentType" : 5123,
            "count" : 1620,
            "type" : "SCALAR"
        }
    ],
    "bufferViews" : [
        {
            "buffer" : 0,
            "byteLength" : 5508,
            "byteOffset" : 0
        },
        {
            "buffer" : 0,
            "byteLength" : 5508,
            "byteOffset" : 5508
        },
        {
            "buffer" : 0,
            "byteLength" : 3672,
            "byteOffset" : 11016
        },
        {
            "buffer" : 0,
            "byteLength" : 3240,
            "byteOffset" : 14688
        },
        {
            "buffer" : 0,
            "byteLength" : 538895,
            "byteOffset" : 17928
        },
        {
            "buffer" : 0,
            "byteLength" : 720663,
            "byteOffset" : 556824
        }
    ],
    "samplers" : [
        {
            "magFilter" : 9729,
            "minFilter" : 9987
        }
    ],
    "buffers" : [
        {
            "byteLength" : 1277488,
            "uri" : "data:application/octet-stream;base64,"
        }
    ]
}
